<svg width="60" height="92" fill="none" xmlns="http://www.w3.org/2000/svg"><path d="M51.799 28.981v40.397h-6.736v-44.38l6.736 3.983zM25.8 0v19.395l11.394-6.726v56.709h4.882V9.608L25.801 0z" fill="#8C6925"/><path d="M33.938 18.43v50.948H17.656v-41.34l16.282-9.608zM7.933 43.126v26.252h6.743V39.143l-6.743 3.983z" fill="#BAA360"/><path d="M11.815 79H8.518l-.712 1.613h-.648l2.706-6.05h.62l2.705 6.05h-.662L11.815 79zm-.225-.519l-1.423-3.248-1.423 3.248h2.846zm8.412-3.356c.43.367.642.879.642 1.52 0 .648-.212 1.152-.642 1.52-.43.367-1.021.547-1.775.547h-1.592v1.908h-.627v-6.05h2.212c.76 0 1.353.18 1.782.555zm-.45 2.629c.31-.26.465-.634.465-1.11 0-.49-.155-.864-.465-1.13-.31-.266-.761-.396-1.346-.396h-1.571v3.025h1.57c.593.007 1.037-.13 1.347-.39zm8.257 2.312v.554h-4.185v-6.05h4.058v.555h-3.431v2.153h3.058v.548H24.25v2.247h3.558v-.007zm8.018-5.496v6.05h-.62v-2.794H31.5v2.794h-.627v-6.05h.627v2.694h3.706V74.57h.62zm9.033 5.496v1.908h-.586V80.62H39.11l-.007 1.354h-.585l.007-1.909h.296c.388-.021.662-.338.81-.943.148-.605.247-1.47.282-2.585l.07-1.96h3.988v5.496h.888v-.007zm-4.595-1.196c-.112.598-.296.994-.556 1.195h3.642v-4.94H40.52l-.05 1.47c-.027.921-.098 1.677-.204 2.275zM51.63 79h-3.297l-.712 1.613h-.648l2.705-6.05h.62l2.706 6.05h-.662L51.63 79zm-.226-.519l-1.423-3.248-1.423 3.248h2.846z" fill="#F7F7F7"/><path d="M2.607 85.287l.937 1.549.937-1.549h2.501l-2.078 3.126 2.268 3.436h-2.55l-1.078-1.693-1.064 1.692H0l2.255-3.334L.14 85.28h2.466v.007zm11.146 5.423h-2.438l-.43 1.146H8.687l2.804-6.554h2.128l2.804 6.554H14.19l-.437-1.145zm-.592-1.591l-.62-1.65-.62 1.65h1.24zm10.322-3.522c.437.202.775.49 1.014.864.24.375.36.814.36 1.311s-.12.936-.36 1.31c-.24.375-.577.664-1.014.865-.437.202-.958.303-1.55.303h-.923v1.613h-2.163v-6.554h3.086c.592-.007 1.106.094 1.55.288zm-1.029 2.744c.148-.137.219-.324.219-.569 0-.245-.07-.432-.219-.569-.148-.137-.366-.202-.662-.202h-.79v1.534h.79c.296.008.514-.064.662-.194zm10.188-.482c.437.367.648.9.648 1.613 0 .77-.246 1.354-.74 1.764-.493.41-1.17.612-2.036.612h-3.177v-6.553h2.128v2.009h1.331c.796.007 1.41.194 1.846.555zm-1.733 2.24c.14-.145.211-.34.211-.584 0-.44-.253-.655-.754-.655h-.909v1.454h.91c.218-.007.401-.072.542-.216zm9.434-1.614l1.895 3.37H39.8l-1.226-2.369h-.605v2.37h-2.163v-6.554h2.163v2.441h.662l1.367-2.441h2.254l-1.91 3.183zm5.531 3.075a3.236 3.236 0 01-1.29-1.224 3.378 3.378 0 01-.465-1.764c0-.656.155-1.246.465-1.765.31-.519.74-.929 1.29-1.224.55-.296 1.17-.44 1.86-.44.69 0 1.31.144 1.86.44.55.295.98.698 1.29 1.224.31.519.464 1.11.464 1.765 0 .655-.155 1.245-.465 1.764-.31.519-.74.93-1.29 1.225-.549.295-1.169.439-1.86.439a3.785 3.785 0 01-1.86-.44zm2.585-1.548c.219-.137.388-.324.515-.569.127-.245.19-.533.19-.864 0-.331-.064-.62-.19-.864a1.425 1.425 0 00-.515-.57 1.33 1.33 0 00-.725-.201c-.268 0-.515.065-.726.202a1.422 1.422 0 00-.514.569c-.127.244-.19.532-.19.864 0 .331.063.62.19.864.127.245.303.44.514.569.211.13.458.202.726.202.267 0 .514-.065.725-.202zm11.259-1.008c.19.259.282.576.282.95 0 .584-.225 1.052-.683 1.39-.458.339-1.1.512-1.93.512h-3.425v-6.554h3.255c.796 0 1.41.151 1.846.446.437.303.655.72.655 1.26 0 .31-.07.584-.218.822a1.65 1.65 0 01-.606.583c.36.137.634.331.824.59zm-3.628-1.181h.916c.352 0 .528-.159.528-.476 0-.331-.176-.497-.528-.497h-.916v.973zm1.726 1.966c0-.339-.176-.504-.529-.504H56.09v1.03h1.197c.353-.008.529-.18.529-.526z" fill="#8C6925"/></svg>